<?xml version="1.0" encoding="utf-8"?>
<!-- Generator: Adobe Illustrator 27.5.0, SVG Export Plug-In . SVG Version: 6.00 Build 0)  -->
<svg version="1.1" id="katman_1" xmlns="http://www.w3.org/2000/svg" xmlns:xlink="http://www.w3.org/1999/xlink" x="0px" y="0px"
	 viewBox="0 0 841.89 595.28" style="enable-background:new 0 0 841.89 595.28;" xml:space="preserve">
<style type="text/css">
	.st0{fill-rule:evenodd;clip-rule:evenodd;}
	.st1{fill-rule:evenodd;clip-rule:evenodd;fill:#FFFFFF;}
	.st2{fill-rule:evenodd;clip-rule:evenodd;fill:#F7AB5A;}
	.st3{fill-rule:evenodd;clip-rule:evenodd;fill:#815C2F;}
	.st4{fill-rule:evenodd;clip-rule:evenodd;fill:#F6B7BF;}
	.st5{fill-rule:evenodd;clip-rule:evenodd;fill:#D4EDFC;}
</style>
<g>
	<path class="st0" d="M208.86,106.41c0,0-8.58-2.7-7.36-7.11c0,0-0.49-7.11,22.56-7.36c0,0,13.98-1.47,32.62,17.41
		c0,0,31.14,30.41,32.13,31.64c0,0,7.36,9.81,12.02,5.15c0,0,5.15-5.15,6.87-10.3c0,0,8.58-24.52,20.6-25.01
		c0,0,23.3-2.7,25.01,4.17c0,0,1.72,4.41-5.64,6.13c0,0-19.13,7.11-26.24,14.23c0,0-10.55,8.34-12.51,16.43c0,0-2.7,8.58-1.22,13.24
		c0,0,47.33,37.77,85.35,83.87c0,0,1.22-16.93,13.49-25.01c0,0,4.41-13.24,6.13-39.24c0,0-0.49-25.26,6.87-30.9
		c0,0-2.21-9.81-10.79-14.71c0,0,5.65-1.23,12.51,6.62c0,0-4.17-26.49,9.32-32.86c0,0-10.05,12.75-2.94,31.15
		c0,0,8.58-18.88,15.7-15.45c0,0-8.58,4.66-9.81,19.62c0,0,13.73-2.21,26.23,14.96c0,0,7.61,10.05,11.53,17.41
		c0,0,11.04,14.96,16.19,18.39c0,0,6.38-3.68,16.67,3.43c0,0,41.45-48.32,58.61-72.35c0,0,2.46-1.71-0.98-4.9
		c0,0-16.91-17.66-40.46-23.78c0,0-10.31-0.98-10.8-6.38c0,0,0-10.3,16.68-8.58c0,0,11.28,3.19,21.57,14.72
		c0,0,9.07,13.98,30.66,13.73c0,0-3.43-1.96-8.83-2.7c0,0,7.11-6.38,11.28-18.15c0,0,6.62-23.54,12.76-32.37
		c0,0,11.04-19.62,29.68-17.9c0,0,11.52,0.25,10.3,7.11c0,0-0.73,4.91-8.83,9.32c0,0-17.9,16.19-21.82,21.34
		c0,0-11.53,11.77-8.59,15.2c0,0,4.17,4.42,23.3-3.68c0,0,7.35-3.19,16.43-7.6c0,0,23.3-13.24,36.3-2.21c0,0,10.3,9.57,6.86,14.72
		c0,0-3.19,4.17-15.94,2.45c0,0-27.96-1.72-41.21,1.96c0,0-13.49,3.68-13.98,6.87c0,0-1.22,4.66,13.73,8.58
		c0,0,17.91,4.41,23.55,4.91c0,0,22.81,1.96,23.78,19.62c0,0,2.2,12.01-2.7,10.79c0,0-3.93-1.96-5.15-3.44c0,0-16.92-13-40.22-22.07
		c0,0-10.79-5.4-19.13-0.25c0,0-6.13,3.44-10.3,6.38c0,0-6.87,5.89-14.96,4.66c0,0-44.39,52.97-56.17,77.25
		c0,0,24.53,1.23,24.04,11.04c0,0-0.74,12.51-35.07,8.59c0,0-20.35,32.85-25.01,66.95c0,0-2.45-5.89-3.44-9.32l-1.47-1.47
		c0,0-0.98,5.39,1.23,8.58c0,0,6.12,9.81,9.07,12.27c0,0,8.34,5.15,9.56,8.33c0,0-3.68-1.23-6.13-1.47c0,0,6.38,8.09,5.15,18.88
		c0,0-1.47-4.66-3.68-5.15c0,0,4.17,8.59-7.12,22.31c0,0-15.45,21.59-21.34,34.1c0,0-9.81,16.92-12.99,32.37
		c0,0-1.23,10.05-0.74,14.22c0,0,0.98,8.1-0.74,9.81c0,0,2.21-1.47,2.95-3.68c0,0,1.23-2.94,2.94-1.96c0,0,1.96,2.94,0.49,5.64
		l32.12-1.96c0,0,8.1-1.72,9.32,8.33c0,0,26.24-26.48,49.04-32.61c0,0,13-5.15,18.15,1.47c0,0,2.94,3.68,1.96,12.75
		c0,0,0.25,9.81,5.89,14.47c0,0,8.33,6.38-1.48,21.58c0,0-11.52,17.42-9.07,25.01c0,0,6.87,14.71-12.26,23.05
		c0,0-37.77,20.84-81.67,17.66c0,0-27.71-1.96-37.76-6.86c0,0-9.32-3.44-2.95-16.43c0,0,20.11-33.11,31.39-44.64l-15.7-1.22
		c0,0,0.74,6.38-3.92,4.65l-5.4-4.41c0,0,0,8.1-2.94,8.1c0,0-3.19-0.74-1.96-10.54c0,0-4.17,2.21-12.75,1.72
		c0,0-23.79-2.45-45.37,5.4c0,0-13.73,5.4-18.89,4.66c0,0,4.66,5.64,2.7,7.11c0,0-3.92,1.47-9.32-5.15c0,0-0.49,5.4-4.42,5.15
		c0,0-2.21-0.73-1.47-4.17c0,0-20.85,6.14-37.28,7.6c0,0-25.26,33.11-30.17,39.48c0,0-17.66,27.23-26.48,26.49
		c0,0-4.17-0.49-7.6-4.17c0,0-3.93-3.44-9.81,0c0,0-6.62,2.95-12.75-1.22c0,0-5.64-2.46-4.17-26.98c0,0,2.95-20.36-6.38-25.51
		c0,0-9.32-6.13-9.81-11.27c0,0-1.47-6.62,10.54-16.44c0,0,36.79-35.8,91.97-38c0,0,44.39-4.42,46.1,7.84c0,0,2.7,5.64-8.09,13.73
		c0,0-10.79,10.79-12.26,12.76l6.37-0.5c0,0,0.98-4.67,8.34-2.94c0,0,0-2.46-1.23-2.71c0,0-1.72-4.9,0.98-4.9
		c0,0,4.41,1.23,3.93,4.66l-0.49,3.93c0,0,1.47,0.73,1.22,2.46l1.23,0.24c0,0-0.98-23.78,12.75-31.15c0,0-0.73-4.17-6.86,3.2
		c0,0-2.7-18.39,3.43-30.65c0,0,3.19-8.34,9.32-14.23c0,0,6.86-6.62,7.85-9.07c0,0-0.74,7.84-0.49,9.32c0,0,1.47,0,1.96-2.21
		c0,0,5.64-12.75,0.98-22.07c0,0,8.83-0.73,14.47,17.41l0.24-6.13c0,0,2.7,5.64,3.92,6.87l-4.41,7.6c0,0-11.04,0.98-16.18,11.28
		c0,0,6.86-7.6,14.71-8.82l-3.92,6.37c0,0,3.92-1.22,7.85-7.85c0,0,11.28-19.62,15.45-27.95c0,0,17.17-30.16,15.2-37.03l-0.98-1.96
		c0,0-0.98,3.18-0.98,5.15c0,0-0.49,3.92-1.71,5.15c0,0-25.6-71.95-119.38-160.06c0,0-2.76,7.24-16.91,2.19
		c0,0-10.62-6.4-18.88-4.55c0,0-14.16,3.03-28.31,11.63c0,0-5.9,3.37-10.96,6.91c0,0-7.58,7.25-13.31,6.06c0,0-9.94-3.87,0.67-17.69
		c0,0,9.61-10.45,33.37-13.15c0,0,13.32-0.34,14.33-5.22c0,0,3.88-8.09-17.36-9.44c0,0-20.22-2.02-43.48,1.85
		c0,0-14.83,3.54-17.7-2.19c0,0-4.88-12.3,18.54-17.36c0,0,22.42-2.02,43.99,3.71c0,0,17.87,4.72,19.89,1.18
		c0,0,4.55-6.41-13.32-16.85c0,0-12.81-8.77-25.95-13.31L208.86,106.41L208.86,106.41z"/>
	<path class="st1" d="M296.03,153.01c0,0-11.79,4.77-3.26,16.55C292.77,169.57,290.26,158.03,296.03,153.01L296.03,153.01z"/>
	<path class="st1" d="M435.48,158.28c0,0-11.54-5.27-13.8,20.06C421.69,178.35,420.18,147.75,435.48,158.28L435.48,158.28z"/>
	<path class="st1" d="M440.5,157.28c0,0,5.02-5.02,22.07,17.31C462.57,174.58,444.01,145.74,440.5,157.28L440.5,157.28z"/>
	<path class="st1" d="M446.27,181.61c0,0-7.02-17.56-12.03-15.3c0,0-5.77,2.01-8.78,14.8c0,0-6.52,22.57-1.51,42.63
		c0,0,10.78,8.78,18.06,2.26c0,0,6.52-7.78,7.78-8.53l0.51-5.26l3.51,3.51c0,0,8.28-0.5,13.55,0.76c0,0,9.28,1.5,11.78-5.52
		c0,0,3.76-9.78-9.78-24.33c0,0-14.3-18.31-19.57-16.8C449.78,169.82,445.26,169.57,446.27,181.61L446.27,181.61z"/>
	<path class="st0" d="M449.53,206.94c0,2.77-1.57,5.02-3.51,5.02c-1.94,0-3.51-2.25-3.51-5.02c0-2.77,1.57-5.02,3.51-5.02
		C447.96,201.92,449.53,204.17,449.53,206.94L449.53,206.94z"/>
	<path class="st0" d="M457.48,205.59c0.96,2.53,0.43,5.07-1.18,5.69c-1.61,0.61-3.69-0.94-4.66-3.47c-0.96-2.52-0.44-5.07,1.17-5.69
		C454.43,201.51,456.51,203.06,457.48,205.59L457.48,205.59z"/>
	<path class="st2" d="M453.04,218.23c0,0-5.63,5.8-8.52,9.28c0,0-5.77,7.77-20.82-0.76c0,0-12.54-7.27-20.57,3.51
		c0,0-10.78,11.79-8.28,32.36c0,0,1.76,4.52,5.02,4.52c0,0,7.53,1,10.53-5.27c0,0,9.78-15.05,6.77-19.82c0,0-3.76,0.25-6.52,6.52
		c0,0,1.76-6.52,5.27-9.03c0,0,4.26-2.51,3.76,4.52c0,0-0.75,9.53-6.27,16.55c0,0-7.52,13.8-1.51,15.55c0,0,5.52,0.75,13.29-6.28
		c0,0,41.14-33.35,48.91-36.87c0,0,24.07-13.8,46.65-6.02c0,0-19.81-2.25-27.83,1.51c0,0,19.07,8.03,35.61,4.51
		c0,0,11.79-2.26,12.54-6.52c0,0,0.25-6.78-22.57-8.78c0,0-35.62-4.52-68.98,25.08c0,0,11.54-16.8,42.64-24.83
		c0,0-3.51-5.52,4.26-5.52c0,0,3.77,0.5,5.02,1.75c0,0-8.78-2.26-7.78,2.51l0.25,0.76c0,0,13.79-2.26,19.56-1.75
		c0,0-5.51-9.53-15.3-13.54c0,0-9.52-3.76-12.79,1.5l-1,3.52c0,0-2.01,9.78-12.29,11.53c0,0-9.53-0.25-12.04-0.75
		C460.06,217.97,453.04,217.48,453.04,218.23L453.04,218.23z"/>
	<path class="st0" d="M452.06,220.79c0,0-1.42,3.33-3.32,4.37c0,0-2.18,2-0.19,3.42c0,0,2.66,1.43,4.46-1.14
		C453.01,227.44,455.29,222.69,452.06,220.79L452.06,220.79z"/>
	<path class="st3" d="M449.59,226.13c-0.26,0.24-0.6,0.73-0.6,1.03c0,0,0,0.01,0,0.02c0.01,0.11,0.14,0.22,0.26,0.32
		c0.4,0.18,1.67,0.6,2.66-0.74c0.14-0.33,0.59-1.46,0.59-2.64c0-0.35-0.08-0.7-0.19-1.03C451.67,224.15,450.74,225.4,449.59,226.13
		L449.59,226.13z"/>
	<path class="st0" d="M458.33,219.56c0,0,2.37,5.13,6.75,5.13c0,0,3.23-0.67,2-3.23c0,0-0.38-1.99-4.18-1.52
		c0,0-2.85,0.28-3.71-0.47C459.18,219.47,458.24,219.18,458.33,219.56L458.33,219.56z"/>
	<path class="st3" d="M463.06,221.21c-0.47,0.04-1.23,0.09-2.03,0.04c0.93,1.05,2.26,2.07,3.92,2.12c0.41-0.11,0.95-0.36,1.09-0.66
		c0.02-0.05,0.04-0.11,0.04-0.17c0-0.17-0.08-0.37-0.15-0.53l-0.03-0.06l-0.05-0.18C465.72,221.48,464.99,220.97,463.06,221.21
		L463.06,221.21z"/>
	<path class="st3" d="M489.16,229.69c0,0-17.66,5.36-32.55,19.38c0,0-22.68,18.18-26.48,19.91l4.85,9.01c0,0,3.46-12.81,14.89-3.64
		c0,0,14.54-9.53,19.22,21.98l0.17,1.74c0,0,7.17-46.71,22.77-67.13L489.16,229.69L489.16,229.69z"/>
	<path class="st2" d="M494.57,231.8l8.22,2.27c0,0-22.68,19.28-30.91,83.1c0,0-1.99-0.57-3.12,0
		C468.76,317.16,474.72,259.87,494.57,231.8L494.57,231.8z"/>
	<path class="st2" d="M421.97,275.46c0,0,5.39-3.12,5.96-4.25c0,0,15.32,24.67,22.12,54.74c0,0,1.2,4.67,3.77,4.83
		c0,0,3.06,0.32,5.96-4.19c0,0,7.56-10.62,13.84-5.79c0,0,4.67,6.27,2.1,8.85c0,0-2.26,1.12-5.32-1.78c0,0-3.06-2.41-6.76,2.1
		c0,0-4.99,5.8-5.79,7.73c0,0-3.87,7.89-6.44,1.13C451.41,338.84,441.54,297.3,421.97,275.46L421.97,275.46z"/>
	<path class="st4" d="M466.72,318.22c0,0-5.52,2.03-10.36,8.35c0,0-1.08,2.29-2.69,1.48c0,0-1.48-1.08-1.48-3.63
		c0,0-5.33-23.56-14.98-42.15c0,0-1.41-3.33,2.1-7.19c0,0,4.21-3.68,7.89,0.88c0,0,5.96,5.44,8.42,17.36c0,0,0.88,3.68,1.93,4.03
		c0,0-1.23-2.46-1.06-4.21c0,0-1.58-11.57-4.56-15.43c0,0-1.22-2.28,1.23-2.45c0,0,9.29-1.23,12.8,15.78
		C465.95,291.04,468.18,308.07,466.72,318.22L466.72,318.22z"/>
	<path class="st0" d="M385.31,202.43c0,0-7.76-3.54-12.64,2.22c0,0-2.22,3.77,1.55,4.88c0,0,3.33,0.22,5.76-3.77
		C379.99,205.76,382.66,201.55,385.31,202.43L385.31,202.43z"/>
	<path class="st0" d="M355.6,151.42c0,0-0.44,7.32,8.65,6.66c0,0,17.75-5.99,29.5,2.66c0,0-11.53-15.75-31.27-15.52
		C362.47,145.22,356.49,146.55,355.6,151.42L355.6,151.42z"/>
	<path class="st0" d="M394.41,128.36c0,0-4.66-3.33-7.54-0.67c0,0-3.33,4.44,2.66,7.76c0,0,11.09,5.1,12.42,7.76
		C401.95,143.22,401.51,134.79,394.41,128.36L394.41,128.36z"/>
	<path class="st0" d="M473.14,141.67c0,0,2.88-11.76,10.2-13.75c0,0,3.1-0.44,4.22,1.33c0,0,1.33,4.21-4.44,6.21
		C483.12,135.46,473.8,139.89,473.14,141.67L473.14,141.67z"/>
	<path class="st0" d="M491.11,164.29c0,0,4.43-17.52,21.51-18.18c0,0,10.2,0.22,10.86,6.65c0,0,0,6.43-5.99,5.76
		C517.49,158.52,499.75,156.75,491.11,164.29L491.11,164.29z"/>
	<path class="st0" d="M549.65,209.75c0,0,21.96-5.32,25.95,4.66c0,0,2.21,6.88-7.32,3.77c0,0-2.44-1.11-5.32-3.99
		C562.96,214.19,556.53,209.31,549.65,209.75L549.65,209.75z"/>
	<path class="st0" d="M191.34,435.59c0,0-25.61,12.97-14.3,50.22C177.04,485.81,171.72,451.23,191.34,435.59L191.34,435.59z"/>
	<path class="st0" d="M165.73,456.21c0,0-10.31,18.62,5.99,36.91C171.72,493.13,159.75,477.16,165.73,456.21L165.73,456.21z"/>
	<path class="st5" d="M373.74,205.41c-0.16,0.3-0.43,0.94-0.43,1.53c0,0.19,0.03,0.36,0.09,0.52c0.05,0.13,0.23,0.5,1.04,0.78
		c0.49-0.01,2.68-0.23,4.46-3.14c0.16-0.25,0.92-1.39,2.03-2.39C378.68,202.51,375.91,202.92,373.74,205.41L373.74,205.41z"/>
	<path class="st5" d="M362.64,146.5c-0.58,0.15-5.04,1.42-5.76,5.1c0,0.45,0.09,2.35,1.47,3.69c1.2,1.17,3.11,1.68,5.66,1.51
		c1.44-0.47,13.06-3.93,23.71-0.44C382.71,151.98,374.08,146.42,362.64,146.5L362.64,146.5z"/>
	<path class="st5" d="M387.81,128.6c-0.17,0.28-0.58,1.04-0.58,1.98c0,0.21,0.02,0.42,0.07,0.65c0.25,1.15,1.21,2.2,2.85,3.1
		c1.28,0.59,6.32,2.98,9.78,5.37c-0.83-2.85-2.57-6.89-6.34-10.33C393.31,129.17,389.83,126.87,387.81,128.6L387.81,128.6z"/>
	<path class="st5" d="M483.62,129.19c-3.84,1.09-6.36,5.36-7.78,8.68c2.17-1.33,4.8-2.66,6.73-3.58l0.07-0.03l0.07-0.02
		c3.22-1.12,3.71-2.92,3.71-3.93c0-0.25-0.04-0.37-0.06-0.5C485.79,129.18,484.36,129.1,483.62,129.19L483.62,129.19z"/>
	<path class="st5" d="M493.67,161.03c9.4-5.13,23.29-3.85,23.95-3.79c1.35,0.15,2.35-0.1,3.11-0.76c1.35-1.2,1.45-3.36,1.46-3.63
		c-0.59-5.18-9.51-5.46-9.6-5.46C501.26,147.83,495.88,156.11,493.67,161.03L493.67,161.03z"/>
	<path class="st5" d="M557.52,209.83c3.55,1.35,6.05,3.21,6.22,3.34l0.07,0.05l0.06,0.06c2.55,2.55,4.69,3.6,4.88,3.69
		c3.82,1.23,5.03,0.59,5.37,0.25c0.63-0.61,0.38-1.99,0.25-2.43C572.38,209.79,564.26,209.24,557.52,209.83L557.52,209.83z"/>
	<path class="st2" d="M257.33,541.78c0,0-8.14,11.72-13.3,6.95c0,0-5.56-7.94-17.27-2.39c0,0-9.93,2.98-11.51-7.34
		c0,0-2.18-13.7-0.39-23.23c0,0,2.78-16.08-6.95-23.42c0,0-12.71-7.34-8.74-13.5c0,0,21.04-27.79,60.74-40.1
		c0,0,43.27-14.09,77.81-5.75c0,0,8.53,2.98,3.77,8.73c0,0-19.25,18.26-21.04,21.04c0,0-7.74,2.78-10.52,2.58
		c0,0,5.35,1.39,11.71-0.2l9.33-0.4c0,0,3.18,1.99,5.96,0.6l1.98,0.59c0,0-5.56,1.78-3.77,4.56c0,0,3.57,2.59,6.75-0.19l1.39,1.39
		c0,0-1.98,1.59-1.39,3.57l-1.99,1.4c0,0-38.7,11.9-47.04,5.56c0,0-10.12-4.58,15.68-30.78c0,0-21.43,15.68-19.84,28.59
		c0,0,1.98,7.54,11.51,6.35L257.33,541.78L257.33,541.78z"/>
	<path class="st2" d="M461.91,485.86c0,0,13.02-6.65,23.64-16.47c0,0,28.69-30.29,36.66-34.54c0,0,23.64-15.68,35.87-15.14
		c0,0,8.77-0.54,7.18,11.16c0,0-0.27,13.01,5.31,17.8c0,0,8.5,6.38-0.27,18.86c0,0-13.02,18.07-9.56,29.49
		c0,0,4.52,10.89-9.03,17.26c0,0-33.48,19.93-77.32,18.6c0,0-32.94-1.06-41.98-6.91c0,0-7.44-3.72-1.06-13.81
		c0,0,23.38-38,35.34-48.62v-4.25l-4.78,5.58l-17.81-0.79l-2.12-2.67l1.26-0.87c0,0,4.06,2.95,5.9,1.12c0,0,2.23-3.25-1.42-4.17
		l0.09-1.83c0,0,8.45,3.87,11.5,1.83c0,0,1.43-2.04-2.13-4.27c0,0-2.75-1.63-4.58-1.74v-1.02c0,0,2.34-1.12,2.74-2.23l1.33-0.31
		l30.13-1.83c0,0,6.21-1.52,8.35,2.14c0,0,1.93,3.05,0.81,6.81l-1.53,1.93c0,0-14.04,14.73-18.58,17.85L461.91,485.86L461.91,485.86
		z"/>
	<path class="st1" d="M573.55,127.84c0,0,8.46-9.99,23.69-8.46C597.24,119.38,581.84,112.61,573.55,127.84L573.55,127.84z"/>
</g>
</svg>
